<svg
          xmlns="http://www.w3.org/2000/svg"
          width="24"
          height="24"
          viewBox="0 0 24 24"
          fill="none"
        >
          <path
            d="M12 2C6.477 2 2 6.477 2 12C2 17.523 6.477 22 12 22C17.523 22 22 17.523 22 12C22 6.477 17.523 2 12 2ZM10.25 10C10.2547 10.1671 10.2259 10.3334 10.1652 10.4891C10.1046 10.6448 10.0133 10.7868 9.8968 10.9066C9.7803 11.0265 9.64096 11.1217 9.48701 11.1868C9.33306 11.2518 9.16763 11.2854 9.0005 11.2854C8.83337 11.2854 8.66794 11.2518 8.51399 11.1868C8.36004 11.1217 8.2207 11.0265 8.10421 10.9066C7.98771 10.7868 7.89643 10.6448 7.83576 10.4891C7.7751 10.3334 7.74627 10.1671 7.751 10C7.7602 9.67473 7.89588 9.36587 8.1292 9.13906C8.36253 8.91224 8.6751 8.78535 9.0005 8.78535C9.3259 8.78535 9.63847 8.91224 9.87179 9.13906C10.1051 9.36587 10.2408 9.67473 10.25 10ZM16.25 10C16.2547 10.1671 16.2259 10.3334 16.1652 10.4891C16.1046 10.6448 16.0133 10.7868 15.8968 10.9066C15.7803 11.0265 15.641 11.1217 15.487 11.1868C15.3331 11.2518 15.1676 11.2854 15.0005 11.2854C14.8334 11.2854 14.6679 11.2518 14.514 11.1868C14.36 11.1217 14.2207 11.0265 14.1042 10.9066C13.9877 10.7868 13.8964 10.6448 13.8358 10.4891C13.7751 10.3334 13.7463 10.1671 13.751 10C13.7602 9.67473 13.8959 9.36587 14.1292 9.13906C14.3625 8.91224 14.6751 8.78535 15.0005 8.78535C15.3259 8.78535 15.6385 8.91224 15.8718 9.13906C16.1051 9.36587 16.2408 9.67473 16.25 10ZM7.5 15.75C7.5 15.5511 7.57902 15.3603 7.71967 15.2197C7.86032 15.079 8.05109 15 8.25 15H15.75C15.9489 15 16.1397 15.079 16.2803 15.2197C16.421 15.3603 16.5 15.5511 16.5 15.75C16.5 15.9489 16.421 16.1397 16.2803 16.2803C16.1397 16.421 15.9489 16.5 15.75 16.5H8.25C8.05109 16.5 7.86032 16.421 7.71967 16.2803C7.57902 16.1397 7.5 15.9489 7.5 15.75Z"
            fill="#F9960C"
          ></path>
        </svg>